<svg width="397" height="106" viewBox="0 0 397 106" fill="none" xmlns="http://www.w3.org/2000/svg">
<path fill-rule="evenodd" clip-rule="evenodd" d="M270.605 95.6C260.505 102.3 248.605 106 236.705 106C206.905 106 179.305 84 179.305 53C179.305 22 206.905 0 236.705 0C266.505 0 294.105 22 294.105 53C294.105 64.9 290.005 76.1 282.205 85.1L304.605 102.5H279.205L270.605 95.6ZM269.905 76.9C278.505 64.6 278.505 47.8 271.005 34.8C260.205 16.2 235.905 7.6 216.205 18C207.605 22.5 201.305 30.3 198.705 39.6C195.305 50 197.205 62 202.805 71.3C213.605 89.9 237.905 98.5 257.605 88.1C258.005 87.7 258.705 87.4 259.105 87.4L231.505 68.8V50.9L269.905 76.9Z" fill="#191022"/>
<path fill-rule="evenodd" clip-rule="evenodd" d="M119.205 60.2006L163.905 8.70059L168.405 0.100586H188.505L161.305 31.4006L153.505 40.7006L151.605 42.6006L191.105 102.301H171.305L142.605 58.3006L140.405 55.3006L119.105 79.9006V102.301H102.305V0.100586H119.105V60.2006H119.205Z" fill="#191022"/>
<path fill-rule="evenodd" clip-rule="evenodd" d="M42.6 13.2006V45.0006V57.7006V89.5006H90.7V102.601H24.5V0.100586H87.4L89 13.2006H42.6Z" fill="#191022"/>
<path fill-rule="evenodd" clip-rule="evenodd" d="M328.002 12.9006V28.7006V44.4006C339.302 44.4006 343.602 44.4006 357.802 44.4006H360.702C369.102 44.0006 375.602 37.3006 375.602 28.6006C375.602 20.0006 369.102 12.8006 360.702 12.8006H357.802C343.602 12.9006 338.902 12.9006 328.002 12.9006ZM328.002 57.5006V89.4006V102.501H311.602V0.100586H335.602H361.102H364.702C380.002 0.100586 392.702 13.2006 392.702 29.0006C392.702 44.8006 380.002 57.9006 364.702 57.9006H361.102H335.602H328.002V57.5006Z" fill="#191022"/>
<path d="M397.005 102.601L356.205 47.1006L345.805 51.5006L376.605 102.601H397.005Z" fill="#191022"/>
<path d="M0 74.6C0 64.2 3.3 55.9 9.8 49.9C17.6 42.6 26.1 38.7 42.7 38.2V21.5L76.9 49.9L42.7 79.9V63.2C32.6 63.4 28.9 64.4 22.8 66.4C16.3 68.6 11.5 71.8 6.39999 75.9L0 81.1V74.6Z" fill="url(#paint0_linear_2652_4141)"/>
<defs>
<linearGradient id="paint0_linear_2652_4141" x1="-90.4472" y1="116.029" x2="110.12" y2="17.6067" gradientUnits="userSpaceOnUse">
<stop stop-color="#5558A6"/>
<stop offset="0.5" stop-color="#4AB9EA"/>
<stop offset="1" stop-color="#B2DCBD"/>
</linearGradient>
</defs>
</svg>
