<?xml version="1.0" standalone="no"?>
<!DOCTYPE svg PUBLIC "-//W3C//DTD SVG 20010904//EN"
 "http://www.w3.org/TR/2001/REC-SVG-20010904/DTD/svg10.dtd">
<svg version="1.0" xmlns="http://www.w3.org/2000/svg"
 width="2052.000000pt" height="2052.000000pt" viewBox="0 0 2052.000000 2052.000000"
 preserveAspectRatio="xMidYMid meet">

<g transform="translate(0.000000,2052.000000) scale(0.100000,-0.100000)"
fill="#000000" stroke="none">
<path d="M15740 13310 c0 -5 -9 -10 -20 -10 -11 0 -20 -4 -20 -10 0 -5 -9 -10
-20 -10 -11 0 -20 -4 -20 -10 0 -5 -9 -10 -20 -10 -11 0 -20 -4 -20 -10 0 -5
-9 -10 -20 -10 -11 0 -20 -4 -20 -10 0 -5 -8 -10 -18 -10 -10 0 -24 -9 -32
-20 -8 -11 -22 -20 -32 -20 -10 0 -18 -4 -18 -10 0 -5 -9 -10 -20 -10 -11 0
-20 -4 -20 -10 0 -5 -9 -10 -20 -10 -11 0 -20 -4 -20 -10 0 -5 -9 -10 -20 -10
-11 0 -20 -4 -20 -10 0 -5 -8 -10 -18 -10 -10 0 -24 -9 -32 -20 -8 -11 -22
-20 -32 -20 -10 0 -18 -4 -18 -10 0 -5 -9 -10 -20 -10 -11 0 -20 -4 -20 -10 0
-5 -9 -10 -20 -10 -11 0 -20 -4 -20 -10 0 -5 -9 -10 -20 -10 -11 0 -20 -4 -20
-10 0 -5 -9 -10 -20 -10 -11 0 -20 -4 -20 -10 0 -5 -8 -10 -18 -10 -10 0 -24
-9 -32 -20 -8 -11 -22 -20 -32 -20 -10 0 -18 -4 -18 -10 0 -5 -9 -10 -20 -10
-11 0 -20 -4 -20 -10 0 -5 -9 -10 -20 -10 -11 0 -20 -4 -20 -10 0 -5 -9 -10
-20 -10 -11 0 -20 -4 -20 -10 0 -5 -9 -10 -20 -10 -11 0 -20 -4 -20 -10 0 -5
-8 -10 -18 -10 -10 0 -24 -9 -32 -20 -8 -11 -22 -20 -32 -20 -10 0 -18 -4 -18
-10 0 -5 -9 -10 -20 -10 -11 0 -20 -4 -20 -10 0 -5 -9 -10 -20 -10 -11 0 -20
-4 -20 -10 0 -5 -9 -10 -20 -10 -11 0 -20 -4 -20 -10 0 -5 -9 -10 -20 -10 -11
0 -20 -4 -20 -10 0 -5 -8 -10 -18 -10 -10 0 -24 -9 -32 -20 -8 -11 -22 -20
-32 -20 -10 0 -18 -4 -18 -10 0 -5 -9 -10 -20 -10 -11 0 -20 -4 -20 -10 0 -5
-9 -10 -20 -10 -11 0 -20 -4 -20 -10 0 -5 -9 -10 -20 -10 -11 0 -20 -4 -20
-10 0 -5 -8 -10 -18 -10 -10 0 -24 -9 -32 -20 -8 -11 -22 -20 -32 -20 -10 0
-18 -4 -18 -10 0 -5 -9 -10 -20 -10 -11 0 -20 -4 -20 -10 0 -5 -9 -10 -20 -10
-11 0 -20 -4 -20 -10 0 -5 -9 -10 -20 -10 -11 0 -20 -4 -20 -10 0 -5 -9 -10
-20 -10 -11 0 -20 -4 -20 -10 0 -5 -8 -10 -18 -10 -10 0 -24 -9 -32 -20 -8
-11 -22 -20 -32 -20 -10 0 -18 -4 -18 -10 0 -5 -9 -10 -20 -10 -11 0 -20 -4
-20 -10 0 -5 -9 -10 -20 -10 -11 0 -20 -4 -20 -10 0 -5 -9 -10 -20 -10 -11 0
-20 -4 -20 -10 0 -5 -9 -10 -20 -10 -11 0 -20 -4 -20 -10 0 -5 -8 -10 -18 -10
-10 0 -24 -9 -32 -20 -8 -11 -22 -20 -32 -20 -10 0 -18 -4 -18 -10 0 -5 -9
-10 -20 -10 -11 0 -20 -4 -20 -10 0 -5 -9 -10 -20 -10 -11 0 -20 -4 -20 -10 0
-5 -9 -10 -20 -10 -11 0 -20 -4 -20 -10 0 -5 -9 -10 -20 -10 -11 0 -20 -4 -20
-10 0 -5 -8 -10 -18 -10 -10 0 -24 -9 -32 -20 -8 -11 -22 -20 -32 -20 -10 0
-18 -4 -18 -10 0 -5 -9 -10 -20 -10 -11 0 -20 -4 -20 -10 0 -5 -9 -10 -20 -10
-11 0 -20 -4 -20 -10 0 -5 -9 -10 -20 -10 -11 0 -20 -4 -20 -10 0 -5 -8 -10
-18 -10 -10 0 -24 -9 -32 -20 -8 -11 -22 -20 -32 -20 -10 0 -18 -4 -18 -10 0
-5 -9 -10 -20 -10 -11 0 -20 -4 -20 -10 0 -5 -9 -10 -20 -10 -11 0 -20 -4 -20
-10 0 -5 -9 -10 -20 -10 -11 0 -20 -4 -20 -10 0 -5 -9 -10 -20 -10 -11 0 -20
-4 -20 -10 0 -5 -8 -10 -18 -10 -10 0 -24 -9 -32 -20 -8 -11 -22 -20 -32 -20
-10 0 -18 -4 -18 -10 0 -5 -9 -10 -20 -10 -11 0 -20 -4 -20 -10 0 -5 -9 -10
-20 -10 -11 0 -20 -4 -20 -10 0 -5 -9 -10 -20 -10 -11 0 -20 -4 -20 -10 0 -5
-9 -10 -20 -10 -11 0 -20 -4 -20 -10 0 -5 -8 -10 -18 -10 -10 0 -24 -9 -32
-20 -8 -11 -22 -20 -32 -20 -10 0 -18 -4 -18 -10 0 -5 -9 -10 -20 -10 -11 0
-20 -4 -20 -10 0 -5 -9 -10 -20 -10 -11 0 -20 -4 -20 -10 0 -5 -9 -10 -20 -10
-11 0 -20 -4 -20 -10 0 -5 -9 -10 -20 -10 -11 0 -20 -4 -20 -10 0 -5 -8 -10
-18 -10 -10 0 -24 -9 -32 -20 -8 -11 -22 -20 -32 -20 -10 0 -18 -4 -18 -10 0
-5 -9 -10 -20 -10 -11 0 -20 -4 -20 -10 0 -5 -9 -10 -20 -10 -11 0 -20 -4 -20
-10 0 -5 -9 -10 -20 -10 -11 0 -20 -4 -20 -10 0 -5 -9 -10 -20 -10 -11 0 -20
-4 -20 -10 0 -5 -8 -10 -18 -10 -10 0 -24 -9 -32 -20 -8 -11 -22 -20 -32 -20
-10 0 -18 -4 -18 -10 0 -5 -9 -10 -20 -10 -11 0 -20 -4 -20 -10 0 -5 -9 -10
-20 -10 -11 0 -20 -4 -20 -10 0 -5 -9 -10 -20 -10 -11 0 -20 -4 -20 -10 0 -5
-8 -10 -18 -10 -10 0 -24 -9 -32 -20 -8 -11 -22 -20 -32 -20 -10 0 -18 -4 -18
-10 0 -5 -9 -10 -20 -10 -11 0 -20 -4 -20 -10 0 -5 -9 -10 -20 -10 -11 0 -20
-4 -20 -10 0 -5 -9 -10 -20 -10 -11 0 -20 -4 -20 -10 0 -5 -9 -10 -20 -10 -11
0 -20 -4 -20 -10 0 -5 -8 -10 -18 -10 -10 0 -24 -9 -32 -20 -8 -11 -22 -20
-32 -20 -10 0 -18 -4 -18 -10 0 -5 -9 -10 -20 -10 -11 0 -20 -4 -20 -10 0 -5
-9 -10 -20 -10 -11 0 -20 -4 -20 -10 0 -5 -9 -10 -20 -10 -11 0 -20 -4 -20
-10 0 -5 -9 -10 -20 -10 -11 0 -20 -4 -20 -10 0 -5 -8 -10 -18 -10 -10 0 -24
-9 -32 -20 -8 -11 -22 -20 -32 -20 -10 0 -18 -4 -18 -10 0 -5 -9 -10 -20 -10
-11 0 -20 -4 -20 -10 0 -5 -9 -10 -20 -10 -11 0 -20 -4 -20 -10 0 -5 -9 -10
-20 -10 -11 0 -20 -4 -20 -10 0 -5 -9 -10 -20 -10 -11 0 -20 -4 -20 -10 0 -5
-7 -10 -16 -10 -8 0 -22 -7 -30 -15 -14 -13 -14 -17 0 -30 8 -8 22 -15 30 -15
9 0 16 -4 16 -10 0 -5 9 -10 20 -10 11 0 20 -4 20 -10 0 -5 9 -10 20 -10 11 0
20 -4 20 -10 0 -5 9 -10 20 -10 11 0 20 -4 20 -10 0 -5 9 -10 20 -10 11 0 20
-4 20 -10 0 -5 9 -10 20 -10 11 0 20 -4 20 -10 0 -5 14 -10 30 -10 17 0 30 -4
30 -10 0 -5 9 -10 20 -10 11 0 20 -4 20 -10 0 -5 9 -10 20 -10 11 0 20 -4 20
-10 0 -5 9 -10 20 -10 11 0 20 -4 20 -10 0 -5 9 -10 20 -10 11 0 20 -4 20 -10
0 -5 9 -10 20 -10 11 0 20 -4 20 -10 0 -5 9 -10 20 -10 11 0 20 -4 20 -10 0
-5 9 -10 20 -10 11 0 20 -4 20 -10 0 -5 14 -10 30 -10 17 0 30 -4 30 -10 0 -5
9 -10 20 -10 11 0 20 -4 20 -10 0 -5 9 -10 20 -10 11 0 20 -4 20 -10 0 -5 9
-10 20 -10 11 0 20 -4 20 -10 0 -5 9 -10 20 -10 11 0 20 -4 20 -10 0 -5 9 -10
20 -10 11 0 20 -4 20 -10 0 -5 9 -10 20 -10 11 0 20 -4 20 -10 0 -5 14 -10 30
-10 17 0 30 -4 30 -10 0 -5 9 -10 20 -10 11 0 20 -4 20 -10 0 -5 9 -10 20 -10
11 0 20 -4 20 -10 0 -5 9 -10 20 -10 11 0 20 -4 20 -10 0 -5 9 -10 20 -10 11
0 20 -4 20 -10 0 -5 9 -10 20 -10 11 0 20 -4 20 -10 0 -5 9 -10 20 -10 11 0
20 -4 20 -10 0 -5 9 -10 20 -10 11 0 20 -4 20 -10 0 -5 14 -10 30 -10 17 0 30
-4 30 -10 0 -5 9 -10 20 -10 11 0 20 -4 20 -10 0 -5 7 -10 15 -10 29 0 65 -47
65 -85 0 -19 5 -35 10 -35 6 0 10 -22 10 -50 0 -27 5 -50 10 -50 6 0 10 -18
10 -40 0 -22 5 -40 10 -40 6 0 10 -22 10 -50 0 -27 5 -50 10 -50 6 0 10 -22
10 -50 0 -27 5 -50 10 -50 6 0 10 -22 10 -50 0 -27 5 -50 10 -50 6 0 10 -18
10 -40 0 -22 5 -40 10 -40 6 0 10 -22 10 -50 0 -27 5 -50 10 -50 6 0 10 -22
10 -50 0 -27 5 -50 10 -50 6 0 10 -18 10 -40 0 -22 3 -40 6 -40 11 0 34 29 34
42 0 8 9 20 20 28 11 8 20 21 20 28 0 8 14 27 30 42 17 15 30 34 30 42 0 7 9
20 20 28 11 8 20 21 20 28 0 8 14 27 30 42 17 15 30 34 30 42 0 7 9 20 20 28
11 8 20 21 20 28 0 8 14 27 30 42 17 15 30 34 30 42 0 7 9 20 20 28 11 8 20
20 20 28 0 20 67 82 90 82 23 0 90 62 90 82 0 8 9 20 20 28 11 8 20 21 20 30
0 9 9 22 20 30 11 8 20 21 20 28 0 8 14 27 30 42 17 15 30 34 30 42 0 7 9 20
20 28 11 8 20 21 20 30 0 9 9 22 20 30 11 8 20 21 20 28 0 8 14 27 30 42 17
15 30 34 30 42 0 7 9 20 20 28 11 8 20 21 20 28 0 8 14 27 30 42 17 15 30 34
30 42 0 7 9 20 20 28 11 8 20 21 20 30 0 9 9 22 20 30 11 8 20 21 20 28 0 8
14 27 30 42 17 15 30 34 30 42 0 7 9 20 20 28 11 8 20 21 20 30 0 9 9 22 20
30 11 8 20 21 20 28 0 8 14 27 30 42 17 15 30 34 30 42 0 7 9 20 20 28 11 8
20 21 20 30 0 9 9 22 20 30 11 8 20 21 20 28 0 8 14 27 30 42 17 15 30 34 30
42 0 7 9 20 20 28 11 8 20 21 20 30 0 9 9 22 20 30 11 8 20 21 20 28 0 8 14
27 30 42 17 15 30 34 30 42 0 7 9 20 20 28 11 8 20 21 20 30 0 9 9 22 20 30
11 8 20 21 20 28 0 8 14 27 30 42 17 15 30 34 30 42 0 7 9 20 20 28 11 8 20
21 20 30 0 9 9 22 20 30 11 8 20 21 20 28 0 8 14 27 30 42 17 15 30 34 30 42
0 7 9 20 20 28 11 8 20 21 20 28 0 8 14 27 30 42 17 15 30 34 30 42 0 7 9 20
20 28 11 8 20 21 20 30 0 9 9 22 20 30 11 8 20 21 20 28 0 8 14 27 30 42 17
15 30 34 30 42 0 7 9 20 20 28 11 8 20 21 20 30 0 9 9 22 20 30 11 8 20 21 20
28 0 8 14 27 30 42 17 15 30 34 30 42 0 7 9 20 20 28 11 8 20 21 20 28 0 8 14
27 30 42 17 15 30 34 30 42 0 7 9 20 20 28 11 8 20 21 20 30 0 9 9 22 20 30
11 8 20 21 20 28 0 8 14 27 30 42 17 15 30 34 30 42 0 7 9 20 20 28 11 8 20
21 20 28 0 8 14 27 30 42 17 15 30 35 30 44 0 9 5 16 10 16 6 0 10 7 10 16 0
8 18 33 40 54 22 21 40 46 40 54 0 9 5 16 10 16 6 0 10 7 10 16 0 9 14 29 30
44 17 15 30 34 30 42 0 7 9 20 20 28 11 8 20 21 20 28 0 8 14 27 30 42 17 15
30 34 30 42 0 7 9 20 20 28 11 8 20 21 20 30 0 9 9 22 20 30 11 8 20 22 20 32
0 10 5 18 10 18 6 0 10 9 10 20 0 11 5 20 10 20 6 0 10 5 10 10 0 6 -4 10 -10
10 -5 0 -10 -4 -10 -10z"/>
<path d="M4473 12911 c-24 -11 -51 -34 -63 -53 -19 -32 -20 -49 -20 -641 0
-670 -1 -658 62 -697 45 -28 138 -28 183 0 66 41 65 34 65 696 0 565 -1 597
-19 632 -36 70 -131 99 -208 63z"/>
<path d="M5515 12916 c-255 -59 -433 -227 -500 -471 -9 -35 -19 -118 -22 -200
-4 -117 -2 -156 16 -240 50 -244 192 -413 405 -481 96 -31 275 -43 371 -25 79
14 171 61 233 116 55 50 62 53 62 29 0 -34 24 -95 46 -119 19 -21 32 -25 78
-25 48 0 57 3 80 31 l26 31 0 304 c0 334 -2 350 -58 373 -20 9 -101 11 -276 9
l-248 -3 -24 -28 c-19 -22 -24 -40 -24 -81 0 -102 44 -126 229 -126 l113 0 -7
-37 c-16 -89 -82 -169 -174 -212 -49 -23 -69 -26 -156 -26 -86 0 -107 4 -155
26 -69 33 -110 67 -149 126 -95 142 -105 412 -23 587 61 130 164 197 313 204
154 8 194 -12 331 -166 36 -40 41 -42 93 -42 96 0 145 44 145 130 0 115 -123
235 -310 303 -72 26 -324 34 -415 13z"/>
<path d="M6748 12916 c-58 -16 -76 -30 -99 -81 -17 -37 -19 -81 -19 -633 0
-633 0 -633 49 -677 32 -28 143 -34 187 -10 64 34 64 37 64 506 0 283 3 420
10 413 6 -6 135 -208 288 -450 198 -312 288 -445 312 -461 27 -19 47 -23 109
-23 98 0 138 19 169 80 l22 44 0 604 c0 665 2 645 -63 679 -43 23 -135 23
-170 0 -63 -41 -62 -29 -67 -511 l-5 -439 -275 444 c-151 244 -288 458 -305
475 -49 51 -118 64 -207 40z"/>
<path d="M8267 12916 c-48 -18 -62 -29 -81 -70 -14 -30 -16 -106 -16 -635 0
-572 1 -604 19 -639 11 -20 33 -45 49 -54 43 -25 137 -24 180 2 63 39 62 27
62 697 0 585 -1 609 -20 640 -35 58 -123 85 -193 59z"/>
<path d="M8775 12886 c-105 -47 -111 -181 -11 -227 35 -16 67 -19 214 -19
l172 0 0 -507 c0 -479 2 -510 20 -550 26 -57 69 -83 141 -83 42 0 65 6 90 23
65 44 64 28 67 600 l3 517 175 0 c157 0 179 2 215 21 97 49 86 181 -18 225
-47 20 -1023 20 -1068 0z"/>
<path d="M10240 12889 c-47 -19 -79 -59 -90 -114 -7 -35 -10 -234 -8 -596 3
-523 4 -545 23 -578 11 -19 33 -43 48 -55 28 -21 36 -21 486 -21 383 0 462 2
485 15 74 39 76 166 4 210 -31 19 -51 20 -380 20 l-348 0 0 170 0 169 310 3
310 3 26 27 c20 19 28 39 31 75 5 64 -21 108 -74 122 -23 7 -153 11 -320 11
l-283 0 0 150 0 149 344 3 c332 3 346 4 373 24 59 44 63 142 7 195 l-26 24
-446 2 c-283 1 -456 -2 -472 -8z"/>
<path d="M12799 9217 c-23 -18 -34 -43 -60 -143 -22 -88 -22 -93 -5 -118 33
-52 98 -54 130 -4 16 25 56 173 56 208 0 51 -80 89 -121 57z"/>
<path d="M12647 8748 c-13 -13 -37 -54 -52 -93 -16 -38 -46 -105 -67 -147 -43
-88 -49 -137 -18 -168 31 -31 83 -27 112 9 37 43 140 279 146 332 4 41 1 48
-23 67 -35 28 -68 28 -98 0z"/>
<path d="M7865 8408 c-59 -34 -56 -77 15 -187 57 -90 86 -107 137 -86 64 27
62 69 -7 177 -30 45 -61 88 -69 95 -20 15 -50 16 -76 1z"/>
<path d="M12381 8191 c-16 -4 -47 -38 -89 -96 -35 -50 -86 -117 -113 -150 -33
-40 -49 -69 -49 -88 0 -38 40 -77 81 -77 36 0 60 23 149 140 129 171 143 206
98 247 -29 26 -47 31 -77 24z"/>
<path d="M8135 8005 c-17 -16 -25 -35 -25 -57 0 -28 14 -46 109 -138 139 -136
180 -164 220 -155 56 12 80 81 44 122 -10 11 -73 73 -140 137 -135 129 -160
140 -208 91z"/>
<path d="M11954 7698 c-12 -7 -57 -42 -101 -78 -43 -36 -102 -81 -131 -100
-62 -42 -80 -77 -62 -120 14 -35 37 -50 74 -50 26 0 193 119 278 198 38 36 48
51 48 77 0 59 -60 100 -106 73z"/>
<path d="M8629 7591 c-52 -53 -35 -90 74 -158 131 -82 230 -133 260 -133 34 0
77 40 77 72 0 37 -26 65 -98 105 -37 20 -106 61 -154 90 -47 29 -96 53 -108
53 -12 0 -35 -13 -51 -29z"/>
<path d="M11380 7324 c-51 -24 -101 -44 -236 -95 -63 -24 -84 -60 -64 -108 20
-49 58 -58 138 -31 125 41 282 112 297 133 27 39 11 96 -32 116 -33 15 -41 14
-103 -15z"/>
<path d="M9200 7300 c-22 -22 -26 -69 -10 -100 10 -19 107 -60 245 -103 133
-41 138 -41 174 -12 36 31 41 71 14 103 -19 23 -333 132 -378 132 -14 0 -34
-9 -45 -20z"/>
<path d="M9823 7128 c-28 -29 -30 -77 -5 -108 20 -25 133 -45 308 -56 95 -6
103 -5 123 15 27 27 28 84 2 110 -22 22 -32 24 -201 41 -63 7 -135 14 -160 17
-38 4 -48 1 -67 -19z"/>
<path d="M10753 7140 c-23 -5 -92 -13 -154 -19 -93 -9 -116 -14 -136 -33 -29
-27 -30 -67 -2 -102 18 -23 27 -26 84 -26 75 0 283 26 319 40 35 13 60 54 52
85 -15 60 -59 75 -163 55z"/>
</g>
</svg>
